<?xml version="1.0" standalone="no"?>
<!DOCTYPE svg PUBLIC "-//W3C//DTD SVG 20010904//EN"
 "http://www.w3.org/TR/2001/REC-SVG-20010904/DTD/svg10.dtd">
<svg version="1.0" xmlns="http://www.w3.org/2000/svg"
 width="2461.000000pt" height="2051.000000pt" viewBox="0 0 2461.000000 2051.000000"
 preserveAspectRatio="xMidYMid meet">

<g transform="translate(0.000000,2051.000000) scale(0.100000,-0.100000)"
fill="#000000" stroke="none">
<path d="M12305 20499 c-801 -49 -1404 -138 -2080 -304 -1743 -429 -3309
-1258 -4635 -2454 -161 -145 -495 -478 -654 -651 -1513 -1649 -2419 -3683
-2620 -5888 l-6 -62 3346 2 3346 3 38 130 c298 1017 1016 1872 1977 2354 469
234 994 379 1528 422 207 16 614 6 810 -20 937 -126 1753 -532 2380 -1182 471
-489 761 -1003 951 -1683 l16 -59 1267 8 c696 5 2192 7 3324 7 l2058 -2 -6 47
c-3 27 -12 116 -20 198 -190 1869 -940 3686 -2140 5185 -845 1055 -1882 1929
-3081 2598 -1606 895 -3450 1368 -5307 1361 -199 -1 -420 -5 -492 -10z"/>
<path d="M12585 13164 c-476 -50 -886 -174 -1250 -376 -839 -466 -1382 -1236
-1523 -2161 -26 -175 -23 -597 6 -775 103 -625 375 -1156 822 -1602 672 -672
1616 -996 2580 -884 1050 121 1967 760 2410 1679 143 298 237 630 271 960 19
187 7 504 -26 693 -50 291 -132 542 -261 802 -344 691 -958 1229 -1698 1489
-365 128 -618 171 -1021 176 -148 1 -288 1 -310 -1z"/>
<path d="M16690 9369 c-143 -555 -400 -1055 -766 -1493 -119 -142 -399 -418
-534 -528 -853 -687 -1960 -1000 -3051 -863 -490 62 -993 225 -1438 464 -917
495 -1613 1367 -1879 2356 l-19 70 -3347 3 -3347 2 6 -62 c60 -588 133 -1024
255 -1515 504 -2035 1660 -3884 3290 -5264 1126 -953 2440 -1660 3875 -2085
767 -227 1491 -357 2385 -426 222 -17 1196 -17 1420 0 1008 78 1841 241 2720
532 1369 454 2593 1153 3685 2105 218 190 738 710 929 930 1159 1328 1930
2855 2290 4537 67 312 129 707 161 1018 8 85 17 176 20 202 l5 46 -2977 0
c-1638 1 -3134 4 -3325 8 l-346 7 -12 -44z"/>
</g>
</svg>
